<svg fill="none" height="32" width="32" xmlns="http://www.w3.org/2000/svg" xmlns:xlink="http://www.w3.org/1999/xlink"><clipPath id="a"><path d="m0 0h32v32h-32z"/></clipPath><g clip-path="url(#a)" fill="#606060"><path d="m16 31c-8.271 0-15-6.729-15-15s6.729-15 15-15 15 6.729 15 15-6.729 15-15 15zm0-28c-7.168 0-13 5.832-13 13s5.832 13 13 13 13-5.832 13-13-5.832-13-13-13z"/><path d="m13.171 19.828a.999.999 0 0 1 -.707-1.707l5.657-5.656a.999.999 0 1 1 1.414 1.414l-5.657 5.656a.997.997 0 0 1 -.707.293z"/><path d="m18.828 19.828a.997.997 0 0 1 -.707-.293l-5.657-5.656a.999.999 0 1 1 1.414-1.414l5.657 5.656a.999.999 0 0 1 -.707 1.707z"/></g></svg>