<svg width="17" height="17" fill="none" xmlns="http://www.w3.org/2000/svg">
    <g clip-path="url(#menu_inscribe_svg__a)">
        <path fill-rule="evenodd" clip-rule="evenodd"
              d="M10.107 3.854a1.073 1.073 0 0 0-1.518 0l-.38.38-5.313 5.32h.001l-.167.169s-.534.537-1.74 4.43l-.025.081a75.638 75.638 0 0 0-.124.406l-.05.165a88.32 88.32 0 0 0-.116.392c-.087.294-.298.956-.059 1.196.23.231.9.028 1.193-.059a91.377 91.377 0 0 0 .56-.168l.183-.056.223-.069.065-.02c3.703-1.153 4.368-1.694 4.423-1.744l.005-.004.171-.172.012.012 5.313-5.32.38-.38c.419-.419.419-1.1 0-1.52l-3.037-3.039Zm-3.45 9.732a.539.539 0 0 1-.03.02l-.015.008a5.01 5.01 0 0 1-.015.01c-.177.105-.695.378-1.954.834-.148.053-.308.11-.476.168l-1.79-1.792c.059-.17.115-.33.169-.479.455-1.264.727-1.785.833-1.961l.007-.012.01-.017.008-.012.011-.018.131-.13 3.244 3.247-.134.134Zm9.523-9.732L13.144.814a1.073 1.073 0 0 0-1.518 0l-.76.76c-.419.42-.419 1.1 0 1.52l3.037 3.04c.419.42 1.099.42 1.518 0l.759-.76c.42-.42.42-1.1 0-1.52Z"
              fill="#c8c8c8"></path>
    </g>
    <defs>
        <clipPath id="menu_inscribe_svg__a">
            <path fill="currentColor" transform="translate(.5 .5)" d="M0 0h16v16H0z"></path>
        </clipPath>
    </defs>
</svg>
