<svg xmlns="http://www.w3.org/2000/svg" version="1.1" xmlns:xlink="http://www.w3.org/1999/xlink" xmlns:svgjs="http://svgjs.dev/svgjs" width="1500" height="935" viewBox="0 0 1500 935"><g transform="matrix(1,0,0,1,-0.9090909090909918,0.3785425101214628)"><svg viewBox="0 0 396 247" data-background-color="#ffffff" preserveAspectRatio="xMidYMid meet" height="935" width="1500" xmlns="http://www.w3.org/2000/svg" xmlns:xlink="http://www.w3.org/1999/xlink"><g id="tight-bounds" transform="matrix(1,0,0,1,0.2400000000000091,-0.09999999999999432)"><svg viewBox="0 0 395.52 247.2" height="247.2" width="395.52"><g><svg></svg></g><g><svg viewBox="0 0 395.52 247.2" height="247.2" width="395.52"><g transform="matrix(1,0,0,1,75.54432,87.19309058975463)"><svg viewBox="0 0 244.43135999999998 72.81381882049074" height="72.81381882049074" width="244.43135999999998"><g><svg viewBox="0 0 244.43135999999998 72.81381882049074" height="72.81381882049074" width="244.43135999999998"><g><svg viewBox="0 0 244.43135999999998 72.81381882049074" height="72.81381882049074" width="244.43135999999998"><g><svg viewBox="0 0 244.43135999999998 72.81381882049074" height="72.81381882049074" width="244.43135999999998"><g id="textblocktransform"><svg viewBox="0 0 244.43135999999998 72.81381882049074" height="72.81381882049074" width="244.43135999999998" id="textblock"><g><svg viewBox="0 0 244.43135999999998 72.81381882049074" height="72.81381882049074" width="244.43135999999998"><g transform="matrix(1,0,0,1,0,0)"><svg width="244.43135999999998" viewBox="0.45 -33.2 116.14 34.6" height="72.81381882049074" data-palette-color="#50a060"><path d="M24.35-26.35Q24.1-27.15 22.43-27.78 20.75-28.4 18.05-28.4L18.05-28.4Q15.1-28.4 13.45-26.75 11.8-25.1 11.8-22.6L11.8-22.6Q11.8-21.05 12.93-20.23 14.05-19.4 16.4-18.4L16.4-18.4 18.2-17.65 19.7-16.95Q22.4-15.75 23.98-14.78 25.55-13.8 26.65-12.1 27.75-10.4 27.75-7.75L27.75-7.75Q27.75-4.9 25.88-2.83 24-0.75 20.65 0.33 17.3 1.4 12.85 1.4L12.85 1.4Q9.55 1.4 6.68 0.38 3.8-0.65 2.13-2.2 0.45-3.75 0.45-5.25L0.45-5.25Q0.45-6.7 1.7-7.63 2.95-8.55 5.25-8.9L5.25-8.9Q5.5-7.45 6.95-6.3 8.4-5.15 10.33-4.48 12.25-3.8 13.7-3.8L13.7-3.8Q16.35-3.8 18.43-4.85 20.5-5.9 20.5-7.75L20.5-7.75Q20.5-9.3 19.03-10.33 17.55-11.35 14.6-12.55L14.6-12.55 11.95-13.75Q8.7-15.35 6.8-17.35 4.9-19.35 4.9-22.65L4.9-22.65Q4.9-26.3 6.95-28.58 9-30.85 11.93-31.85 14.85-32.85 17.65-32.85L17.65-32.85Q22.1-32.85 24.98-31.7 27.85-30.55 29.15-28.8 30.45-27.05 30.45-25.2L30.45-25.2Q30.45-24.15 29.93-22.65 29.4-21.15 28.38-20.05 27.35-18.95 25.9-18.95L25.9-18.95Q23.4-18.95 23.4-21.55L23.4-21.55Q23.5-22.35 23.85-24.18 24.2-26 24.35-26.35L24.35-26.35ZM41.5 1.05Q36.6 1.05 34.35-0.9 32.1-2.85 32.1-6.1L32.1-6.1Q32.1-10.85 34.47-14.9 36.85-18.95 40.82-21.33 44.8-23.7 49.4-23.7L49.4-23.7Q52.2-23.7 54.1-22.13 56-20.55 56-17.5L56-17.5Q56-15.75 54.87-14.63 53.75-13.5 51.65-12.63 49.55-11.75 44.85-10.15L44.85-10.15Q40.6-8.75 37.95-7.8L37.95-7.8Q37.75-7.05 37.75-6.25L37.75-6.25Q37.75-4.85 38.92-4.1 40.1-3.35 42.25-3.35L42.25-3.35Q43.6-3.35 45.35-3.9 47.1-4.45 47.55-5.3L47.55-5.3Q49.25-8.4 50.65-8.4L50.65-8.4Q52.7-8.4 53.42-7.63 54.15-6.85 54.2-5.9L54.2-5.9Q53.6-4.3 51.85-2.68 50.1-1.05 47.4 0 44.7 1.05 41.5 1.05L41.5 1.05ZM39.35-12.4Q44.3-14 47.5-15.38 50.7-16.75 50.7-18.1L50.7-18.1Q50.7-18.7 50.05-19.07 49.4-19.45 48.65-19.45L48.65-19.45Q47.15-19.45 45.22-18.3 43.3-17.15 41.65-15.5 40-13.85 39.35-12.4L39.35-12.4ZM67.2 1.05Q62.3 1.05 60.05-0.9 57.8-2.85 57.8-6.1L57.8-6.1Q57.8-10.85 60.17-14.9 62.55-18.95 66.52-21.33 70.5-23.7 75.09-23.7L75.09-23.7Q77.9-23.7 79.8-22.13 81.7-20.55 81.7-17.5L81.7-17.5Q81.7-15.75 80.57-14.63 79.45-13.5 77.34-12.63 75.25-11.75 70.55-10.15L70.55-10.15Q66.3-8.75 63.65-7.8L63.65-7.8Q63.45-7.05 63.45-6.25L63.45-6.25Q63.45-4.85 64.62-4.1 65.8-3.35 67.95-3.35L67.95-3.35Q69.3-3.35 71.05-3.9 72.8-4.45 73.25-5.3L73.25-5.3Q74.95-8.4 76.34-8.4L76.34-8.4Q78.4-8.4 79.12-7.63 79.84-6.85 79.9-5.9L79.9-5.9Q79.3-4.3 77.55-2.68 75.8-1.05 73.09 0 70.4 1.05 67.2 1.05L67.2 1.05ZM65.05-12.4Q70-14 73.2-15.38 76.4-16.75 76.4-18.1L76.4-18.1Q76.4-18.7 75.75-19.07 75.09-19.45 74.34-19.45L74.34-19.45Q72.84-19.45 70.92-18.3 69-17.15 67.34-15.5 65.7-13.85 65.05-12.4L65.05-12.4ZM88.54-29.55Q89.09-31.75 89.72-32.48 90.34-33.2 91.99-33.2L91.99-33.2Q93.34-33.2 94.32-32.9 95.29-32.6 95.34-32L95.34-32Q95.59-31.85 95.59-31.2L95.59-31.2Q95.59-30.15 95.04-28 94.49-25.85 93.44-22.4L93.44-22.4Q92.24-18.25 91.49-15.35 90.74-12.45 90.54-10.4L90.54-10.4 90.49-9.7Q90.49-7.7 91.49-6.43 92.49-5.15 93.94-4.58 95.39-4 96.79-4L96.79-4Q99.99-4 101.84-5.48 103.69-6.95 104.67-9.53 105.64-12.1 106.49-16.55L106.49-16.55Q106.94-18.8 107.89-23.05 108.84-27.3 109.14-28.2L109.14-28.2Q109.59-29.5 109.69-30.2L109.69-30.2Q109.99-31.35 110.32-31.95 110.64-32.55 111.34-33L111.34-33Q111.54-33.05 111.89-33.13 112.24-33.2 112.44-33.2L112.44-33.2Q114.14-33.2 115.27-32.9 116.39-32.6 116.59-32.15L116.59-32.15Q115.84-29.2 114.52-23.38 113.19-17.55 112.59-14.15L112.59-14.15Q109.84 1.05 96.09 1.05L96.09 1.05Q92.59 1.05 89.84-0.35 87.09-1.75 85.52-4.23 83.94-6.7 83.94-9.85L83.94-9.85Q83.94-11.45 84.39-13.15L84.39-13.15 88.54-29.55Z" opacity="1" transform="matrix(1,0,0,1,0,0)" fill="#50a060" class="wordmark-text-0" data-fill-palette-color="primary" id="text-0"></path></svg></g></svg></g></svg></g></svg></g></svg></g></svg></g></svg></g><path d="M207.774 81.193L207.774 24.782 10.137 24.782 10.137 222.418 207.774 222.418 207.774 166.007 201.208 166.007 201.208 215.852 16.704 215.852 16.704 31.348 201.208 31.348 201.208 81.193Z" fill="#50a060" stroke="transparent" data-fill-palette-color="tertiary"></path></svg></g><defs></defs></svg><rect width="395.52" height="247.2" fill="none" stroke="none" visibility="hidden"></rect></g></svg></g></svg>