<svg fill="none" height="17" width="17" xmlns="http://www.w3.org/2000/svg"><path d="m14.59 9.914h-1.728v-4.71h1.728a.469.469 0 0 0 .45-.6l-1.098-3.768a.469.469 0 0 0 -.45-.337h-10.984a.469.469 0 0 0 -.45.338l-1.098 3.766a.469.469 0 0 0 .45.6h1.728v4.711h-1.728a.469.469 0 0 0 -.469.469v5.648c0 .26.21.469.47.469h13.179c.259 0 .469-.21.469-.469v-5.648a.469.469 0 0 0 -.47-.469zm-9.865-8.476h.928l-.275 2.828h-1.203l.55-2.829zm7.1 2.828h-1.203l-.275-2.829h.928zm-5.23-2.829h.938v2.829h-1.213zm1.875 2.83v-2.83h.935l.275 2.829h-1.21zm5.495 0h-1.185l-.55-2.829h.91zm-11.105-2.83h.91l-.55 2.829h-1.185zm1.216 3.766h7.849v4.711h-1.573v-1.414a.469.469 0 0 0 -.47-.469h-3.764a.469.469 0 0 0 -.469.469v1.414h-1.573v-4.71zm4.393 3.767h.945v.945h-.944v-.945zm-.938.945h-.945v-.945h.945zm6.59 5.649h-2.827v-2.829h.472a.469.469 0 0 0 0-.937h-1.883a.469.469 0 0 0 0 .937h.474v2.829h-4.711v-2.829h.471a.469.469 0 0 0 0-.937h-1.883a.469.469 0 0 0 0 .937h.474v2.829h-2.83v-4.711h12.243v4.71z" fill="#000"/></svg>
