<svg fill="none" height="48" width="48" xmlns="http://www.w3.org/2000/svg"><path d="m26.425 10.84 12.712 6.347a.805.805 0 0 1 .015 1.433l-16.51 8.7a3.232 3.232 0 0 1 -2.95.032l-10.366-5.175c-1.263-.506-2.674.42-2.674 1.812 0 1.12.634 2.145 1.637 2.646l10.393 5.189a3.489 3.489 0 0 1 2.495-1.046c.949 0 1.81.378 2.44.99l12.944-6.82a3.494 3.494 0 0 1 3.443-4.106 3.494 3.494 0 0 1 3.496 3.491 3.494 3.494 0 0 1 -3.496 3.491 3.488 3.488 0 0 1 -2.43-.98l-12.952 6.825a3.494 3.494 0 0 1 -3.445 4.093 3.494 3.494 0 0 1 -3.458-4.017l-10.543-5.263a4.833 4.833 0 0 1 -2.676-4.324v-1.02c0-1.394.773-2.674 2.008-3.325l16.967-8.94a3.232 3.232 0 0 1 2.95-.033zm-5.248 24.773a1.344 1.344 0 1 0 .002-2.688 1.344 1.344 0 0 0 -.002 2.688zm20.171-11.28a1.344 1.344 0 1 1 -2.687-.002 1.344 1.344 0 0 1 2.687.002z" fill="#646464"/></svg>