<svg fill="none" height="18" width="18" xmlns="http://www.w3.org/2000/svg" xmlns:xlink="http://www.w3.org/1999/xlink"><clipPath id="a"><path d="m0 0h18v18h-18z"/></clipPath><g clip-path="url(#a)" fill="#fff"><path d="m8.98 18.027v-3.047c-.307 0-.62-.027-.927-.073l-.48 3.006c.467.08.94.114 1.407.114zm1.4-.107c.467-.073.927-.18 1.373-.327l-.94-2.9a5.97 5.97 0 0 1 -.906.214zm-4.173-.327.94-2.893a5.99 5.99 0 0 1 -.86-.353l-1.387 2.713c.42.207.86.387 1.307.533zm6.846-.533c.42-.213.82-.46 1.2-.733l-1.8-2.46c-.246.18-.513.346-.793.48zm-9.353-.74 1.8-2.46a6.008 6.008 0 0 1 -.707-.6l-2.16 2.153c.334.327.694.634 1.067.907zm11.613-.893.02-.02c.334-.327.64-.687.914-1.06l-2.467-1.794c-.18.247-.387.487-.6.7l-.033.034 1.04.98zm-13.593-1.087 2.467-1.793a5.943 5.943 0 0 1 -.487-.787l-2.72 1.38c.213.42.46.82.74 1.2zm15.26-1.193c.213-.414.393-.854.54-1.3l-2.907-.934c-.093.294-.213.58-.353.854zm-16.54-1.3 2.907-.94a5.889 5.889 0 0 1 -.214-.9l-3.02.473c.074.46.187.92.327 1.367zm17.407-1.36c.073-.46.113-.934.113-1.4h-3.053c0 .306-.027.62-.074.926zm-14.787-1.407c0-.307.027-.62.073-.927l-3.02-.473a9.83 9.83 0 0 0 -.113 1.4zm11.773-.92 3.02-.473a8.86 8.86 0 0 0 -.326-1.367l-2.907.933c.093.3.167.6.213.907zm-11.486-.907a5.61 5.61 0 0 1 .353-.853l-2.72-1.38a8.897 8.897 0 0 0 -.54 1.3zm10.92-.846 2.726-1.38c-.213-.42-.46-.82-.74-1.2l-2.473 1.793c.18.247.347.513.487.787zm-10.08-.794c.18-.246.386-.486.606-.706l.007-.007-2.16-2.153-.007.006c-.333.334-.64.687-.913 1.067zm8.993-.693.653-.66 1.5-1.493-.006-.007a9.77 9.77 0 0 0 -1.06-.907l-1.8 2.46c.246.18.486.38.7.6zm-7.673-.62c.246-.18.513-.34.793-.48l-1.387-2.713c-.42.213-.82.46-1.2.733zm6.173-.473 1.393-2.714a9.212 9.212 0 0 0 -1.3-.54l-.946 2.894c.286.1.573.22.853.36zm-4.52-.36c.293-.094.6-.167.907-.214l-.474-3.006c-.46.073-.926.18-1.373.326zm2.753-.214.48-3.006a8.944 8.944 0 0 0 -1.4-.114v3.047c.307 0 .62.027.92.073z"/><path d="m8.973 15.034v-3.06a2.99 2.99 0 0 1 -.767-.1l-.8 2.953c.514.133 1.04.207 1.567.207zm1.567-.207c.513-.133 1-.333 1.46-.6l-1.547-2.647c-.22.127-.46.227-.707.294zm-4.587-.6 1.547-2.647a3.17 3.17 0 0 1 -.614-.466l-.026-.027-.974 1.02-1.2 1.153.02.02a6.15 6.15 0 0 0 1.247.947zm7.293-.947c.374-.373.7-.786.96-1.24l-2.673-1.533c-.127.22-.287.42-.473.607zm-9.506-1.246 2.673-1.527a2.937 2.937 0 0 1 -.293-.7l-2.98.787c.133.5.34.986.6 1.44zm11.073-1.434a6.086 6.086 0 0 0 .207-1.546h-3.087c0 .253-.033.513-.1.76zm-8.787-1.553c0-.253.034-.513.1-.76l-2.986-.787a6.085 6.085 0 0 0 -.207 1.547zm5.8-.753 2.987-.787a5.974 5.974 0 0 0 -.6-1.447l-2.673 1.527c.12.227.22.46.286.707zm-5.406-.707c.126-.213.28-.42.466-.6l.007-.007-1.107-1.093-1.06-1.087-.02.02a6.133 6.133 0 0 0 -.96 1.234zm4.64-.6 1.093-1.087 1.12-1.053-.027-.027a6.182 6.182 0 0 0 -1.246-.953l-1.547 2.647c.22.126.42.28.607.46zm-3.56-.473c.22-.127.46-.227.706-.294l-.786-2.953c-.514.133-1 .333-1.46.6zm2.24-.287.8-2.953a6.149 6.149 0 0 0 -1.56-.207v3.06c.253 0 .513.033.76.1z"/></g></svg>