<svg fill="#646464" height="40" viewBox="64 64 896 896" width="40" xmlns="http://www.w3.org/2000/svg"><path d="m928 254.3c-30.6 13.2-63.9 22.7-98.2 26.4a170.1 170.1 0 0 0 75-94 336.64 336.64 0 0 1 -108.2 41.2 170.1 170.1 0 0 0 -124.6-53.9c-94.5 0-170.5 76.6-170.5 170.6 0 13.2 1.6 26.4 4.2 39.1-141.5-7.4-267.7-75-351.6-178.5a169.32 169.32 0 0 0 -23.2 86.1c0 59.2 30.1 111.4 76 142.1a172 172 0 0 1 -77.1-21.7v2.1c0 82.9 58.6 151.6 136.7 167.4a180.6 180.6 0 0 1 -44.9 5.8c-11.1 0-21.6-1.1-32.2-2.6 21.6 67.6 84.5 116.7 159.4 118.3-58.6 45.9-132 72.9-211.7 72.9-14.3 0-27.5-.5-41.2-2.1 75.6 48.5 165.3 76.5 261.9 76.5 313.6 0 485.2-259.8 485.2-485.3 0-7.4 0-14.8-.5-22.2 33.2-24.3 62.3-54.4 85.5-88.2z"/></svg>