<svg fill="none" height="72" width="72" xmlns="http://www.w3.org/2000/svg" xmlns:xlink="http://www.w3.org/1999/xlink"><radialGradient id="a" cx="0" cy="0" gradientTransform="matrix(0 60 -66.547 0 36 6)" gradientUnits="userSpaceOnUse" r="1"><stop offset="0" stop-color="#4635b0" stop-opacity=".2"/><stop offset="1" stop-color="#df5f5f" stop-opacity=".8"/></radialGradient><linearGradient id="b" gradientUnits="userSpaceOnUse" x1="10" x2="60.5" y1="13.5" y2="61.5"><stop offset=".354" stop-color="#715fdf" stop-opacity=".2"/><stop offset="1" stop-color="#df5f5f"/></linearGradient><clipPath id="c"><path d="m0 0h24v24h-24z" transform="translate(24 24)"/></clipPath><rect height="70" rx="35" stroke="#202020" stroke-width="2" width="70" x="1" y="1"/><rect height="70" rx="35" stroke="url(#b)" stroke-opacity=".5" stroke-width="2" width="70" x="1" y="1"/><rect fill="#202020" height="60" rx="30" width="60" x="6" y="6"/><rect fill="url(#a)" fill-opacity=".6" height="60" rx="30" width="60" x="6" y="6"/><g clip-path="url(#c)"><path d="m48 31v-3c0-2.748-5.702-4-11-4s-11 1.252-11 4v3c0 .497.146.955.39 1.381-1.579.68-2.39 1.556-2.39 2.619v3c0 1.193.769 2.181 2 2.958v2.042c0 3.248 5.667 5 11 5s11-1.752 11-5v-3c0-.965-.674-1.784-2-2.442v-2.558c0-.255-.055-.569-.228-.906 1.363-.796 2.228-1.83 2.228-3.094zm-4 6.93-.018.145c-.129 1.068-2.815 2.506-7.063 2.849l-.165.01c-.251.019-.504.036-.766.046-.322.013-.651.02-.988.02-2.892 0-5.663-.534-7.415-1.428l-.3-.153c-.829-.473-1.285-.981-1.285-1.419v-.568c.012.006.028.011.04.018.244.12.504.233.781.338.068.027.143.05.213.075.217.078.441.153.674.223.104.031.211.06.318.09.22.06.445.117.675.171.108.025.215.051.325.074.285.061.577.117.875.168l.167.031c.356.058.72.109 1.089.153.108.013.217.024.325.036a30.368 30.368 0 0 0 2.013.154l.356.016c.384.013.767.021 1.149.021s.765-.008 1.15-.021l.355-.016a35.519 35.519 0 0 0 1.2-.076c.273-.022.543-.049.813-.078.108-.012.217-.023.325-.036.37-.044.733-.095 1.09-.153l.166-.031c.298-.051.59-.107.875-.168.11-.023.217-.049.325-.074.23-.054.455-.111.675-.171.107-.03.213-.059.318-.09.233-.07.457-.145.674-.223.07-.025.145-.048.213-.075.277-.105.537-.218.781-.338.012-.007.027-.012.04-.018zm2-6.93c0 .534-.669 1.173-1.879 1.725l-.349.143c-1.756.719-4.224 1.132-6.772 1.132-.412 0-.819-.013-1.222-.033l-.188-.012a22.785 22.785 0 0 1 -1.136-.094h-.006c-2.457-.273-4.571-.929-5.722-1.822l-.21-.163c-.332-.302-.516-.603-.516-.876v-.568c.012.006.028.011.04.018.244.12.504.233.78.338.069.027.144.05.214.075.217.078.441.153.674.223.104.031.21.06.318.09.22.06.445.117.675.171.108.025.215.05.325.074.285.061.577.117.875.168l.167.031c.356.058.72.109 1.089.153.108.013.217.024.325.036a30.328 30.328 0 0 0 2.013.154l.356.016c.384.013.767.021 1.149.021s.765-.008 1.149-.021l.356-.016a35.519 35.519 0 0 0 1.2-.076c.273-.022.543-.049.813-.078.108-.012.217-.023.325-.036.37-.044.733-.095 1.09-.153l.166-.031c.298-.051.59-.107.875-.168.11-.023.217-.049.325-.074.23-.054.455-.111.675-.171.107-.03.213-.059.318-.09.233-.07.457-.145.674-.223.07-.025.145-.048.213-.075.277-.105.537-.218.781-.338.012-.007.027-.012.04-.018z" fill="#deb4b4"/></g></svg>