<svg fill="none" height="72" width="72" xmlns="http://www.w3.org/2000/svg" xmlns:xlink="http://www.w3.org/1999/xlink"><radialGradient id="a" cx="0" cy="0" gradientTransform="matrix(0 60 -66.547 0 36 6)" gradientUnits="userSpaceOnUse" r="1"><stop offset="0" stop-color="#4635b0" stop-opacity=".2"/><stop offset="1" stop-color="#715fdf" stop-opacity=".8"/></radialGradient><linearGradient id="b" gradientUnits="userSpaceOnUse" x1="10" x2="60.5" y1="13.5" y2="61.5"><stop offset=".379" stop-color="#715fdf" stop-opacity=".2"/><stop offset="1" stop-color="#715fdf"/></linearGradient><rect height="70" rx="35" stroke="#202020" stroke-width="2" width="70" x="1" y="1"/><rect height="70" rx="35" stroke="url(#b)" stroke-opacity=".5" stroke-width="2" width="70" x="1" y="1"/><rect fill="#202020" height="60" rx="30" width="60" x="6" y="6"/><rect fill="url(#a)" fill-opacity=".6" height="60" rx="30" width="60" x="6" y="6"/><path d="m46.625 45.586h-21.25v1.708h21.25zm-16.646-4.386h2.824v3.7h1.879v-3.7h2.824v3.702h1.875v-3.702h2.824v3.702h2.461v-6.687a.344.344 0 0 0 -.343-.343h-16.452a.344.344 0 0 0 -.343.343v6.687h2.45v-3.702zm1.153-6.863h2.293v2.849h1.526v-2.849h2.293v2.849h1.525v-2.849h2.293v2.849h1.858v-4.281a.344.344 0 0 0 -.343-.343h-12.95a.344.344 0 0 0 -.342.343v4.28h1.847zm5.309-6.766v-.339h2.28a.344.344 0 0 0 .343-.343v-1.84a.344.344 0 0 0 -.343-.343h-2.622a.344.344 0 0 0 -.343.343v2.522a4.675 4.675 0 0 0 -4.312 4.305h9.306a4.666 4.666 0 0 0 -4.309-4.305z" fill="#b4b4de"/></svg>